<svg xmlns="http://www.w3.org/2000/svg" width="17" height="17" viewBox="0 0 17 17" fill="none" class="dist_marketing-link__icon--sm__ywAFO dist_marketing-link__end__nGkHI"><path d="M1.97608 3.94278L2.8421 4.44278L2.8421 4.44278L1.97608 3.94278ZM5.51485 3.78835C6.06713 3.78835 6.51485 3.34063 6.51485 2.78835C6.51485 2.23606 6.06713 1.78835 5.51485 1.78835V3.78835ZM2.82118 3.09768L2.32118 2.23165L2.32118 2.23165L2.82118 3.09768ZM2.343 14.426L1.63589 15.1331L1.63589 15.1331L2.343 14.426ZM14.9807 11.2542C14.9807 10.7019 14.533 10.2542 13.9807 10.2542C13.4284 10.2542 12.9807 10.7019 12.9807 11.2542H14.9807ZM13.6713 13.9478L14.5374 14.4478L13.6713 13.9478ZM12.8262 14.7929L12.3262 13.9269L12.3262 13.9269L12.8262 14.7929ZM10.1326 14.1023H6.28447V16.1023H10.1326V14.1023ZM2.66675 10.4845V6.63645H0.666748V10.4845H2.66675ZM2.66675 6.63645C2.66675 5.89874 2.66771 5.41233 2.70133 5.04132C2.73371 4.68405 2.78996 4.5331 2.8421 4.44278L1.11005 3.44278C0.852869 3.88823 0.754449 4.36481 0.709496 4.86079C0.66579 5.34302 0.666748 5.93555 0.666748 6.63645H2.66675ZM5.51485 1.78835C4.81395 1.78835 4.22142 1.78739 3.73919 1.83109C3.24321 1.87605 2.76663 1.97447 2.32118 2.23165L3.32118 3.9637C3.4115 3.91155 3.56245 3.85531 3.91972 3.82293C4.29073 3.7893 4.77714 3.78835 5.51485 3.78835V1.78835ZM2.8421 4.44278C2.95698 4.2438 3.12221 4.07858 3.32118 3.9637L2.32118 2.23165C1.81817 2.52206 1.40046 2.93977 1.11005 3.44278L2.8421 4.44278ZM6.28447 14.1023C5.16779 14.1023 4.43088 14.1001 3.88427 14.0267C3.36642 13.957 3.17146 13.8403 3.0501 13.7189L1.63589 15.1331C2.19078 15.688 2.87815 15.9094 3.61777 16.0088C4.32863 16.1044 5.22433 16.1023 6.28447 16.1023V14.1023ZM0.666748 10.4845C0.666748 11.5447 0.664624 12.4404 0.760196 13.1512C0.859636 13.8909 1.081 14.5782 1.63589 15.1331L3.0501 13.7189C2.92875 13.5976 2.81198 13.4026 2.74236 12.8847C2.66887 12.3381 2.66675 11.6012 2.66675 10.4845H0.666748ZM12.9807 11.2542C12.9807 11.9919 12.9797 12.4783 12.9461 12.8493C12.9137 13.2066 12.8575 13.3575 12.8053 13.4478L14.5374 14.4478C14.7945 14.0024 14.893 13.5258 14.9379 13.0298C14.9816 12.5476 14.9807 11.9551 14.9807 11.2542H12.9807ZM10.1326 16.1023C10.8335 16.1023 11.426 16.1032 11.9082 16.0595C12.4042 16.0146 12.8808 15.9161 13.3262 15.659L12.3262 13.9269C12.2359 13.9791 12.085 14.0353 11.7277 14.0677C11.3567 14.1013 10.8703 14.1023 10.1326 14.1023V16.1023ZM12.8053 13.4478C12.6904 13.6468 12.5252 13.812 12.3262 13.9269L13.3262 15.659C13.8292 15.3685 14.2469 14.9508 14.5374 14.4478L12.8053 13.4478ZM14.7489 1.06799C12.5258 3.29104 12.8972 6.95604 15.1907 9.24961L16.605 7.8354C14.913 6.14347 14.8892 3.75612 16.1631 2.48221L14.7489 1.06799ZM14.7489 1.06799C13.4749 2.34194 11.0877 2.31816 9.39583 0.626267L7.98161 2.04048C10.2752 4.33409 13.9401 4.70522 16.1631 2.48221L14.7489 1.06799ZM14.6708 1.05826L7.59881 8.13029L9.01302 9.5445L16.085 2.47247L14.6708 1.05826Z" fill="var(--marketing-iris-purple-900, #005eb0)"/></svg>